<?xml version="1.0" standalone="no"?>
<!DOCTYPE svg PUBLIC "-//W3C//DTD SVG 1.1//EN" "http://www.w3.org/Graphics/SVG/1.1/DTD/svg11.dtd" >
<svg>
<metadata>
Created by FontForge 20120731 at Tue Jul 18 12:11:14 2017
 By www
(c) Copyright 1995-1997 International Typeface Corporation  All rights reserved.
</metadata>
<defs>
<font id="BlairITCTTLight" horiz-adv-x="500" >
  <font-face 
    font-family="BlairITC TT"
    font-weight="300"
    font-stretch="normal"
    units-per-em="1000"
    panose-1="0 0 3 0 0 0 0 0 0 0"
    ascent="800"
    descent="-200"
    x-height="615"
    cap-height="724"
    bbox="-212 -236 1492 927"
    underline-thickness="63"
    underline-position="-48"
    unicode-range="U+0020-F002"
  />
<missing-glyph 
d="M63 0v771h375v-771h-375zM125 63h250v646h-250v-646z" />
    <glyph glyph-name=".notdef" 
d="M63 0v771h375v-771h-375zM125 63h250v646h-250v-646z" />
    <glyph glyph-name=".null" horiz-adv-x="0" 
 />
    <glyph glyph-name="nonmarkingreturn" horiz-adv-x="270" 
 />
    <glyph glyph-name="space" unicode=" " horiz-adv-x="270" 
 />
    <glyph glyph-name="exclam" unicode="!" horiz-adv-x="320" 
d="M206 695l-15 -551h-61l-15 580h91v-29zM220 0h-120v63h120v-63z" />
    <glyph glyph-name="quotedbl" unicode="&#x22;" horiz-adv-x="278" 
d="M97 700v-270h-49v270h49zM231 700v-270h-50v270h50z" />
    <glyph glyph-name="numbersign" unicode="#" horiz-adv-x="912" 
d="M715 534h-96l-27 -177h91v-50h-99l-27 -191h-52l29 191h-198l-29 -191h-52l29 191h-98v50h105l27 177h-97v50h104l22 140h50l-21 -140h199l22 140h49l-20 -140h89v-50zM568 534h-199l-27 -177h199z" />
    <glyph glyph-name="dollar" unicode="$" horiz-adv-x="912" 
d="M480 404q166 -2 245.5 -49t79.5 -148q0 -211 -325 -217v-56h-59v57q-208 14 -314 105l30 48q127 -87 284 -98v305q-304 0 -304 170q0 197 304 208v38h59v-39q180 -9 278 -71l-39 -48q-113 60 -239 63v-268zM421 408v266q-238 -5 -238 -146q0 -63 58 -91.5t180 -28.5z
M480 44q125 4 192 45.5t67 111.5q0 145 -259 148v-305z" />
    <glyph glyph-name="percent" unicode="%" horiz-adv-x="1078" 
d="M980 182q0 -80 -54 -136q-57 -59 -133 -59t-133 59q-52 54 -52 136t52 137q57 60 133 60t134 -60q53 -55 53 -137zM885 724l-612 -734h-80l613 734h79zM470 542q0 -81 -55 -138t-132 -57t-133 58q-52 54 -52 137q0 82 52 137q57 60 133 60q75 0 133 -60q54 -56 54 -137z
M924 182q0 61 -39 104t-92 43t-91.5 -43t-38.5 -104t38 -103.5t92 -42.5t92.5 43t38.5 103zM414 542q0 61 -39 104t-92 43t-91.5 -43t-38.5 -104t38 -103.5t92 -42.5t92.5 43t38.5 103z" />
    <glyph glyph-name="ampersand" unicode="&#x26;" horiz-adv-x="971" 
d="M878 -1q-128 12 -236 81q-122 -93 -287 -93q-117 0 -189.5 58t-72.5 147q0 164 271 223q-56 83 -56 144q0 75 51.5 124.5t130.5 49.5q78 0 126.5 -47t48.5 -121q0 -146 -209 -186q79 -120 188 -218q69 49 128 191h66q-63 -158 -151 -230q87 -52 191 -60v-63zM424 427
q86 9 132 45.5t46 92.5q0 47 -31 77.5t-80 30.5q-53 0 -86 -32.5t-33 -85.5q0 -60 52 -128zM599 123q-115 112 -201 241q-233 -40 -233 -172q0 -65 55 -105t149 -40q107 0 230 76z" />
    <glyph glyph-name="quotesingle" unicode="'" horiz-adv-x="144" 
d="M97 700v-270h-49v270h49z" />
    <glyph glyph-name="parenleft" unicode="(" horiz-adv-x="443" 
d="M368 -141q-100 3 -164 109q-82 136 -82 356q0 221 83 359q63 106 163 110v-34q-63 -4 -105 -79q-77 -138 -77 -356q0 -194 59 -323q47 -104 123 -108v-34z" />
    <glyph glyph-name="parenright" unicode=")" horiz-adv-x="443" 
d="M75 793q100 -4 163 -110q83 -140 83 -359q0 -218 -83 -356q-64 -106 -163 -109v34q75 5 122 108q60 132 60 323q0 217 -77 356q-41 74 -105 79v34z" />
    <glyph glyph-name="asterisk" unicode="*" horiz-adv-x="620" 
d="M512 559l-171 -42l123 -138l-49 -36l-100 154l-94 -160l-50 36l116 142l-179 35l19 59l169 -65l-20 180h61l-9 -181l165 74z" />
    <glyph glyph-name="plus" unicode="+" horiz-adv-x="336" 
d="M215 0h-65v552l-99 -45v53q56 23 100 55h64v-615z" />
    <glyph glyph-name="comma" unicode="," horiz-adv-x="320" 
d="M220 -30q0 -82 -97 -82h-16v30q62 5 62 51v31h-69v63h120v-93z" />
    <glyph glyph-name="hyphen" unicode="-" horiz-adv-x="437" 
d="M377 292h-317v63h317v-63z" />
    <glyph glyph-name="hyphen" unicode="&#x2010;" horiz-adv-x="437" 
d="M377 292h-317v63h317v-63z" />
    <glyph glyph-name="period" unicode="." horiz-adv-x="320" 
d="M220 0h-120v63h120v-63z" />
    <glyph glyph-name="slash" unicode="/" horiz-adv-x="505" 
d="M507 724l-429 -734h-80l430 734h79z" />
    <glyph glyph-name="zero" unicode="0" horiz-adv-x="885" 
d="M796 362q0 -93 -40.5 -173.5t-114.5 -134.5q-90 -66 -199 -66q-110 0 -200 66q-73 54 -113 134.5t-40 173.5t40 173.5t113 133.5q89 65 200 65t200 -65q73 -54 113.5 -134.5t40.5 -172.5zM730 362q0 161 -125 255q-73 55 -163 55t-163 -55q-124 -94 -124 -255t124 -257
q72 -56 163 -56t164 56q124 95 124 257z" />
    <glyph glyph-name="one" unicode="1" horiz-adv-x="342" 
d="M221 0h-65v663l-116 -53v50q63 25 116 64h65v-724z" />
    <glyph glyph-name="two" unicode="2" horiz-adv-x="784" 
d="M721 0h-680q8 116 63 192q40 54 104 91q47 28 137 60q8 3 115 36q65 20 101 41q68 40 68 107q0 66 -62.5 106t-171.5 40q-146 0 -274 -100l-39 48q150 113 314 113q138 0 221.5 -58t83.5 -148q0 -75 -46 -121t-148 -77q-58 -17 -116 -35q-65 -20 -108 -40
q-130 -61 -169 -192h607v-63z" />
    <glyph glyph-name="three" unicode="3" horiz-adv-x="802" 
d="M544 377q178 -32 178 -177q0 -103 -91.5 -157.5t-266.5 -54.5q-112 0 -189 29q-81 31 -144 101l40 51q103 -118 292 -118q285 0 285 157q0 136 -322 136h-37v57q20 -1 59 -1q267 0 267 139q0 63 -58.5 98.5t-164.5 35.5q-144 0 -270 -85l-38 48q154 98 305 98
q143 0 222.5 -51t79.5 -140q0 -122 -147 -166z" />
    <glyph glyph-name="four" unicode="4" horiz-adv-x="781" 
d="M751 152h-167v-152h-65v152h-489v64l489 508h65v-509h167v-63zM519 215v434l-426 -434h426z" />
    <glyph glyph-name="five" unicode="5" horiz-adv-x="799" 
d="M118 388q125 72 270 72q149 0 243 -69q91 -67 91 -169q0 -105 -86.5 -169.5t-234.5 -64.5q-234 0 -357 124l61 33q135 -95 285 -95q120 0 190 48.5t70 124.5q0 78 -72.5 127t-194.5 49q-139 0 -267 -85l-67 55l105 355h515v-63h-471z" />
    <glyph glyph-name="six" unicode="6" horiz-adv-x="872" 
d="M157 284q116 153 312 153q149 0 249 -83q68 -57 68 -141q0 -100 -84 -162q-88 -63 -235 -63q-171 0 -278 104q-110 107 -110 267q0 120 66 213q55 77 140 119.5t184 42.5q164 0 272 -108l-49 -41q-80 88 -240 88q-136 0 -219 -87t-83 -233q0 -35 7 -69zM180 213
q85 -162 291 -162q112 0 175.5 44t63.5 119q0 71 -66 116t-177 45q-89 0 -165.5 -43t-121.5 -119z" />
    <glyph glyph-name="seven" unicode="7" horiz-adv-x="729" 
d="M695 661l-459 -661h-80l462 661h-594v63h671v-63z" />
    <glyph glyph-name="eight" unicode="8" horiz-adv-x="846" 
d="M552 374q224 -38 224 -187q0 -93 -92 -146t-264 -53t-264 52.5t-92 145.5q0 152 224 188q-83 15 -128.5 59t-45.5 108q0 89 80.5 141t224.5 52t225 -52.5t81 -140.5q0 -129 -173 -167zM658 541q0 63 -61.5 97.5t-177.5 34.5q-114 0 -175 -34.5t-61 -97.5q0 -65 62 -103
t175 -38q114 0 176 37.5t62 103.5zM698 192q0 71 -71.5 109.5t-207.5 38.5q-137 0 -210 -38.5t-73 -106.5q0 -66 74.5 -105.5t208.5 -39.5q135 0 207 37.5t72 104.5z" />
    <glyph glyph-name="nine" unicode="9" horiz-adv-x="869" 
d="M700 444q-57 -75 -142 -116.5t-181 -41.5q-132 0 -219 60t-87 157q0 102 86 166t232 64q179 0 287 -102.5t108 -266.5q0 -103 -49.5 -188t-142 -136.5t-198.5 -51.5q-169 0 -281 112l40 45q98 -95 242 -95q105 0 183 54q62 43 97.5 110.5t35.5 144.5q0 44 -11 85z
M678 514q-57 88 -124 123.5t-173 35.5q-116 0 -178 -43.5t-62 -121.5q0 -72 64 -117t170 -45q96 0 176 44t127 124z" />
    <glyph glyph-name="colon" unicode=":" horiz-adv-x="320" 
d="M220 410h-120v63h120v-63zM220 0h-120v63h120v-63z" />
    <glyph glyph-name="semicolon" unicode=";" horiz-adv-x="320" 
d="M220 410h-120v63h120v-63zM220 -30q0 -82 -97 -82h-16v30q62 5 62 51v31h-69v63h120v-93z" />
    <glyph glyph-name="less" unicode="&#x3c;" horiz-adv-x="685" 
d="M627 0h-588q8 119 73 189t199 110.5t168 59.5q58 31 58 87q0 53 -50.5 85t-137.5 32q-131 0 -237 -84l-40 46q129 98 274 98q121 0 192.5 -49t71.5 -131q0 -59 -38 -99q-28 -29 -77 -48q-19 -8 -102 -32q-76 -22 -90 -27q-46 -15 -75 -33q-81 -50 -110 -141h509v-63z" />
    <glyph glyph-name="equal" unicode="=" horiz-adv-x="682" 
d="M463 322q141 -34 141 -155q0 -84 -79.5 -130.5t-229.5 -46.5q-186 0 -290 113l38 46q103 -96 251 -96q237 0 237 126q0 113 -283 113h-22v55q20 -1 56 -1q221 0 221 109q0 51 -48 79.5t-136 28.5q-122 0 -233 -71l-36 46q136 86 266 86q123 0 192.5 -44t69.5 -116
q0 -102 -115 -142z" />
    <glyph glyph-name="greater" unicode="&#x3e;" horiz-adv-x="664" 
d="M642 127h-142v-127h-65v127h-416v61l419 427h62v-425h142v-63zM435 190v346l-346 -346h346z" />
    <glyph glyph-name="question" unicode="?" horiz-adv-x="684" 
d="M39 611q109 124 305 124q137 0 213.5 -55t76.5 -150q0 -72 -46 -111q-37 -31 -135 -63q-46 -15 -52 -17q-26 -10 -42 -24q-44 -38 -44 -148v-23h-67l1 40q2 96 38.5 148t119.5 80q41 11 105 37q48 30 48 85q0 64 -58.5 101t-164.5 37q-141 0 -246 -99zM348 0h-120v63h120
v-63z" />
    <glyph glyph-name="at" unicode="@" horiz-adv-x="814" 
d="M395 -9q-146 0 -235 90.5t-89 238.5q0 102 60 188q49 70 125 110t160 40q131 0 226 -80q101 -85 101 -212q0 -70 -35 -128q-61 -101 -175 -101q-63 0 -86 55q-45 -35 -98 -35q-49 0 -78.5 33t-29.5 90q0 89 54.5 150.5t134.5 61.5q32 0 60 -18l8 18h64q-66 -210 -66 -257
q0 -57 48 -57q59 0 94 49.5t35 135.5q0 108 -71.5 175.5t-185.5 67.5q-122 0 -197.5 -78.5t-75.5 -207.5q0 -276 280 -277v-52h-28zM469 383q0 73 -53 73q-43 0 -77 -53q-35 -57 -35 -137q0 -64 51 -64q45 0 79.5 52.5t34.5 128.5z" />
    <glyph glyph-name="A" unicode="A" horiz-adv-x="870" 
d="M865 0h-75l-99 188h-510l-101 -188h-75l383 724h96zM658 251l-217 410h-9l-218 -410h444z" />
    <glyph glyph-name="B" unicode="B" horiz-adv-x="1006" 
d="M774 371q148 -47 148 -180q0 -88 -61 -139.5t-167 -51.5h-568v724h563q100 0 155.5 -49.5t55.5 -135.5q0 -121 -126 -168zM685 399q63 0 104 39t41 99q0 55 -35.5 89.5t-94.5 34.5h-509v-262h494zM693 63q161 0 161 132q0 65 -43 103t-116 38h-504v-273h502z" />
    <glyph glyph-name="C" unicode="C" horiz-adv-x="973" 
d="M894 586l-58 -23q-117 123 -317 123q-148 0 -249 -80q-117 -93 -117 -242q0 -144 101 -233t265 -89q213 0 317 120l54 -35q-111 -147 -362 -147q-139 0 -248 57q-94 50 -145 134.5t-51 192.5q0 174 134 284q121 99 301 99q250 0 375 -161z" />
    <glyph glyph-name="D" unicode="D" horiz-adv-x="1024" 
d="M557 724q178 0 280.5 -99.5t102.5 -270.5q0 -153 -102.5 -253.5t-256.5 -100.5h-455v724h431zM586 63q122 0 202 87q77 84 77 207q0 136 -82.5 220t-215.5 84h-376v-598h395z" />
    <glyph glyph-name="E" unicode="E" horiz-adv-x="871" 
d="M829 0h-703v724h675v-63h-610v-246h424v-63h-424v-289h638v-63z" />
    <glyph glyph-name="F" unicode="F" horiz-adv-x="816" 
d="M801 661h-610v-246h424v-63h-424v-352h-65v724h675v-63z" />
    <glyph glyph-name="G" unicode="G" horiz-adv-x="1038" 
d="M954 360q-11 -145 -74 -225q-124 -156 -360 -156q-183 0 -304 100q-132 109 -132 284q0 172 133 282q123 102 303 102q228 0 364 -152l-60 -38q-126 129 -304 129q-152 0 -254 -85q-112 -93 -112 -238q0 -144 101 -233t265 -89q141 0 232 65.5t123 190.5h-384v63h463z
" />
    <glyph glyph-name="H" unicode="H" horiz-adv-x="1016" 
d="M890 0h-65v352h-634v-352h-65v724h65v-309h634v309h65v-724z" />
    <glyph glyph-name="I" unicode="I" horiz-adv-x="317" 
d="M191 0h-65v724h65v-724z" />
    <glyph glyph-name="J" unicode="J" horiz-adv-x="734" 
d="M619 225q0 -246 -301 -246q-138 0 -210.5 60.5t-72.5 175.5h61q1 -92 53 -133t164 -41q128 0 184.5 41.5t56.5 141.5v500h65v-499z" />
    <glyph glyph-name="K" unicode="K" horiz-adv-x="881" 
d="M874 0h-78l-357 419l-248 -195v-224h-65v724h65v-426l543 426h95l-341 -266z" />
    <glyph glyph-name="L" unicode="L" horiz-adv-x="755" 
d="M750 0h-624v724h65v-661h559v-63z" />
    <glyph glyph-name="M" unicode="M" horiz-adv-x="1192" 
d="M1066 0h-65v661h-4l-401 -516l-402 516h-3v-661h-65v724h101l369 -483l370 483h100v-724z" />
    <glyph glyph-name="N" unicode="N" horiz-adv-x="1020" 
d="M894 0h-92l-611 661v-661h-65v724h94l609 -661v661h65v-724z" />
    <glyph glyph-name="O" unicode="O" horiz-adv-x="1041" 
d="M957 363q0 -175 -134 -285q-121 -99 -302 -99q-182 0 -303 99q-134 110 -134 285q0 173 135 284q122 100 302 100q179 0 301 -100q135 -111 135 -284zM888 363q0 149 -118 242q-103 81 -249 81q-147 0 -249 -81q-117 -93 -117 -242q0 -145 100.5 -233.5t265.5 -88.5
t266 89t101 233z" />
    <glyph glyph-name="P" unicode="P" horiz-adv-x="913" 
d="M672 724q101 0 159.5 -58t58.5 -158q0 -97 -63 -154t-172 -57h-464v-297h-65v724h546zM667 360q72 0 111.5 39.5t39.5 111.5q0 150 -175 150h-452v-301h476z" />
    <glyph glyph-name="Q" unicode="Q" horiz-adv-x="1051" 
d="M674 1q-75 -21 -148 -21q-183 0 -304 100q-133 109 -133 284q0 172 134 283q122 101 303 101q180 0 302 -101q134 -111 134 -283q0 -239 -231 -343l97 -107l-63 -19zM686 70q207 82 207 294q0 146 -112 238q-104 85 -255 85t-254 -85q-112 -93 -112 -238
q0 -144 100 -232.5t266 -88.5q54 0 101 10l-93 107l59 18z" />
    <glyph glyph-name="R" unicode="R" horiz-adv-x="978" 
d="M892 0h-79l-227 297h-395v-297h-65v724h546q100 0 159 -58.5t59 -157.5q0 -93 -56.5 -148.5t-161.5 -62.5zM667 360q72 0 111.5 39.5t39.5 111.5q0 150 -175 150h-452v-301h476z" />
    <glyph glyph-name="S" unicode="S" horiz-adv-x="931" 
d="M751 609q-131 72 -301 72q-135 0 -206.5 -36.5t-71.5 -103.5q0 -66 69 -94q61 -25 207 -31q125 -5 169 -10q80 -8 128 -29q106 -46 106 -161q0 -110 -96.5 -171.5t-276.5 -61.5q-244 0 -398 107l38 55q158 -101 346 -101q150 0 230.5 44.5t80.5 123.5q0 74 -73 106
q-65 29 -221 36q-115 5 -160 10q-75 7 -119 24q-106 40 -106 145q0 98 91 153.5t259 55.5q227 0 351 -83z" />
    <glyph glyph-name="T" unicode="T" horiz-adv-x="767" 
d="M762 661h-346v-661h-65v661h-346v63h757v-63z" />
    <glyph glyph-name="U" unicode="U" horiz-adv-x="1016" 
d="M890 226q0 -110 -102 -177q-104 -70 -279 -70q-174 0 -278.5 69t-104.5 178v498h65v-473q0 -209 318 -209q316 0 316 209v473h65v-498z" />
    <glyph glyph-name="V" unicode="V" horiz-adv-x="831" 
d="M826 724l-361 -724h-99l-361 724h76l335 -671l334 671h76z" />
    <glyph glyph-name="W" unicode="W" horiz-adv-x="1086" 
d="M1068 724l-233 -724h-99l-198 667l-188 -667h-100l-232 724h74l206 -668l190 668h101l199 -667l206 667h74z" />
    <glyph glyph-name="X" unicode="X" horiz-adv-x="823" 
d="M798 0h-85l-302 323l-300 -323h-86l345 367l-332 357h86l287 -311l289 311h85l-331 -357z" />
    <glyph glyph-name="Y" unicode="Y" horiz-adv-x="793" 
d="M788 724l-358 -433v-291h-65v291l-360 433h79l312 -368l313 368h79z" />
    <glyph glyph-name="Z" unicode="Z" horiz-adv-x="793" 
d="M758 0h-731v63l606 598h-598v63h696v-63l-620 -598h647v-63z" />
    <glyph glyph-name="bracketleft" unicode="[" horiz-adv-x="372" 
d="M328 -141h-228v934h228v-34h-163v-866h163v-34z" />
    <glyph glyph-name="backslash" unicode="\" horiz-adv-x="505" 
d="M507 -10h-80l-429 734h79z" />
    <glyph glyph-name="bracketright" unicode="]" horiz-adv-x="377" 
d="M272 -141h-227v34h163v866h-163v34h227v-934z" />
    <glyph glyph-name="asciicircum" unicode="^" horiz-adv-x="690" 
d="M107 329q98 64 235 64q129 0 207.5 -57.5t78.5 -145.5q0 -90 -75 -145t-203 -55q-201 0 -311 110l54 34q121 -82 249 -82q99 0 159 40q57 39 57 100q0 63 -61 104t-162 41q-120 0 -233 -73l-57 48l92 303h446v-63h-405z" />
    <glyph glyph-name="underscore" unicode="_" 
d="M500 -187v-49h-500v49h500z" />
    <glyph glyph-name="grave" unicode="`" 
d="M282 668h-33l-104 139h79z" />
    <glyph glyph-name="a" unicode="a" horiz-adv-x="758" 
d="M753 0h-76l-84 157h-427l-86 -157h-75l331 615h87zM560 220l-179 333h-2l-180 -333h361z" />
    <glyph glyph-name="b" unicode="b" horiz-adv-x="882" 
d="M688 316q111 -49 111 -151q0 -75 -53.5 -120t-145.5 -45h-488v615h484q86 0 135 -43.5t49 -116.5q0 -92 -92 -139zM592 343q51 0 85 32t34 79q0 43 -29 70.5t-77 27.5h-428v-209h415zM599 63q132 0 132 105q0 51 -35 81.5t-95 30.5h-424v-217h422z" />
    <glyph glyph-name="c" unicode="c" horiz-adv-x="837" 
d="M772 493l-59 -23q-93 104 -268 104q-136 0 -221 -76t-85 -195q0 -111 85.5 -184.5t220.5 -73.5q178 0 268 102l55 -34q-101 -129 -323 -129q-158 0 -261 84q-114 93 -114 242q0 148 115 240q106 85 260 85q215 0 327 -142z" />
    <glyph glyph-name="d" unicode="d" horiz-adv-x="889" 
d="M483 615q153 0 242 -84.5t89 -229.5q0 -130 -88.5 -215.5t-221.5 -85.5h-392v615h371zM508 63q59 0 111 28t82 75q39 62 39 138q0 112 -68 180t-180 68h-315v-489h331z" />
    <glyph glyph-name="e" unicode="e" horiz-adv-x="760" 
d="M720 0h-608v615h584v-63h-519v-195h361v-63h-361v-231h543v-63z" />
    <glyph glyph-name="f" unicode="f" horiz-adv-x="711" 
d="M696 552h-519v-195h361v-63h-361v-294h-65v615h584v-63z" />
    <glyph glyph-name="g" unicode="g" horiz-adv-x="890" 
d="M820 312q-5 -151 -107 -240.5t-267 -89.5q-156 0 -261 85q-115 93 -115 242q0 147 116 241q106 86 260 86q195 0 317 -134l-60 -37q-104 109 -257 109q-135 0 -220.5 -77t-85.5 -195q0 -111 85 -184t221 -73q116 0 192 53t103 151h-325v63h404z" />
    <glyph glyph-name="h" unicode="h" horiz-adv-x="884" 
d="M772 0h-65v294h-530v-294h-65v615h65v-258h530v258h65v-615z" />
    <glyph glyph-name="i" unicode="i" horiz-adv-x="290" 
d="M177 0h-65v615h65v-615z" />
    <glyph glyph-name="j" unicode="j" horiz-adv-x="625" 
d="M527 199q0 -211 -262 -211q-245 0 -245 207h62q1 -78 43.5 -112.5t135.5 -34.5q106 0 153.5 34.5t47.5 115.5v417h65v-416z" />
    <glyph glyph-name="k" unicode="k" horiz-adv-x="773" 
d="M764 0h-80l-302 349l-205 -159v-190h-65v615h65v-351l455 351h97l-297 -228z" />
    <glyph glyph-name="l" unicode="l" horiz-adv-x="658" 
d="M653 0h-541v615h65v-552h476v-63z" />
    <glyph glyph-name="m" unicode="m" horiz-adv-x="1033" 
d="M921 0h-65v548h-2l-337 -430l-338 435h-2v-553h-65v615h91l314 -400l312 400h92v-615z" />
    <glyph glyph-name="n" unicode="n" horiz-adv-x="887" 
d="M775 0h-82l-516 553v-553h-65v615h82l516 -553v553h65v-615z" />
    <glyph glyph-name="o" unicode="o" horiz-adv-x="893" 
d="M823 309q0 -150 -115 -243q-104 -84 -262 -84q-156 0 -261 85q-115 93 -115 242q0 147 116 241q106 86 260 86t260 -86q117 -95 117 -241zM753 303q0 118 -85.5 194.5t-221.5 76.5t-221 -77t-85 -196q0 -112 84.5 -184t221.5 -72t222 72.5t85 185.5z" />
    <glyph glyph-name="p" unicode="p" horiz-adv-x="791" 
d="M581 615q88 0 139.5 -50t51.5 -135q0 -83 -55 -132.5t-150 -49.5h-390v-248h-65v615h469zM577 311q59 0 91 31.5t32 89.5q0 120 -143 120h-380v-241h400z" />
    <glyph glyph-name="q" unicode="q" horiz-adv-x="903" 
d="M574 -1q-58 -16 -123 -16q-158 0 -261 84q-115 94 -115 242q0 147 116 242q105 86 260 86t261 -86q116 -94 116 -242q0 -197 -194 -289l78 -86l-61 -19zM590 69q81 32 124.5 93.5t43.5 140.5q0 65 -21 111.5t-74 91.5q-82 69 -212 69q-136 0 -221 -77t-85 -196
q0 -112 84.5 -184.5t221.5 -72.5q46 0 79 8l-80 89l60 17z" />
    <glyph glyph-name="r" unicode="r" horiz-adv-x="850" 
d="M778 0h-79l-194 248h-328v-248h-65v615h469q88 0 139.5 -50t51.5 -135q0 -77 -47 -124.5t-133 -56.5zM577 311q59 0 91 31.5t32 89.5q0 120 -143 120h-380v-241h400z" />
    <glyph glyph-name="s" unicode="s" horiz-adv-x="802" 
d="M649 510q-116 61 -265 61q-226 0 -226 -107q0 -58 61 -80q52 -20 188 -25q178 -7 247 -40q81 -38 81 -134q0 -95 -83 -147t-239 -52q-213 0 -346 94l37 53q136 -86 310 -86q117 0 181.5 36t64.5 96q0 64 -62 90q-53 22 -187 28q-181 7 -246 34q-82 32 -82 121
q0 85 78.5 132.5t223.5 47.5q183 0 302 -73z" />
    <glyph glyph-name="t" unicode="t" horiz-adv-x="663" 
d="M658 552h-294v-552h-65v552h-294v63h653v-63z" />
    <glyph glyph-name="u" unicode="u" horiz-adv-x="869" 
d="M764 201q0 -94 -89 -152.5t-239 -58.5q-151 0 -241 59t-90 152v414h65v-393q0 -170 266 -170q263 0 263 170v393h65v-414z" />
    <glyph glyph-name="v" unicode="v" horiz-adv-x="724" 
d="M719 615l-312 -615h-90l-312 615h74l283 -557l283 557h74z" />
    <glyph glyph-name="w" unicode="w" horiz-adv-x="946" 
d="M926 615l-201 -615h-91l-165 556l-156 -556h-92l-201 615h74l171 -557l158 557h92l167 -556l171 556h73z" />
    <glyph glyph-name="x" unicode="x" horiz-adv-x="690" 
d="M685 0h-86l-254 268l-253 -268h-87l298 312l-287 303h87l242 -257l243 257h86l-286 -303z" />
    <glyph glyph-name="y" unicode="y" horiz-adv-x="697" 
d="M692 615l-310 -368v-247h-65v247l-312 368h80l263 -305l263 305h81z" />
    <glyph glyph-name="z" unicode="z" horiz-adv-x="662" 
d="M647 0h-632v63l508 489h-501v63h602v-63l-520 -489h543v-63z" />
    <glyph glyph-name="braceleft" unicode="{" horiz-adv-x="380" 
d="M305 -141h-4q-91 0 -132 30.5t-41 102.5v202q0 92 -78 132q78 40 78 133v194q0 140 169 140h8v-34q-112 0 -112 -117v-121q0 -77 -7 -109q-13 -65 -57 -84v-3q44 -19 57 -84q7 -32 7 -109v-127q0 -112 109 -112h3v-34z" />
    <glyph glyph-name="bar" unicode="|" horiz-adv-x="756" 
d="M146 252q100 120 265 120q119 0 194.5 -52t75.5 -130q0 -88 -74.5 -144t-196.5 -56q-152 0 -243.5 86.5t-91.5 226.5q0 106 57 184q100 137 285 137q124 0 233 -96l-50 -41q-80 76 -190 76q-124 0 -197 -70t-73 -185q0 -29 6 -56zM166 183q41 -71 101 -101
q57 -30 146 -30q93 0 144.5 35.5t51.5 96.5q0 58 -54.5 95t-144.5 37q-73 0 -138 -35t-106 -98z" />
    <glyph glyph-name="braceright" unicode="}" horiz-adv-x="372" 
d="M324 326q-78 -40 -78 -132v-202q0 -72 -40.5 -102.5t-132.5 -30.5h-4v34h3q109 0 109 112v127q0 78 6 109q14 64 58 84v3q-44 20 -58 84q-6 31 -6 109v121q0 117 -112 117v34h8q169 0 169 -140v-194q0 -93 78 -133z" />
    <glyph glyph-name="asciitilde" unicode="~" horiz-adv-x="652" 
d="M608 552l-392 -552h-80l392 552h-500v63h580v-63z" />
    <glyph glyph-name="Adieresis" unicode="&#xc4;" horiz-adv-x="870" 
d="M865 0h-75l-99 188h-510l-101 -188h-75l383 724h96zM658 251l-217 410h-9l-218 -410h444zM566 848q0 -20 -14.5 -34.5t-35.5 -14.5q-20 0 -34.5 14t-14.5 35t14.5 35.5t34.5 14.5t35 -15t15 -35zM402 848q0 -20 -14.5 -34.5t-34.5 -14.5q-21 0 -35.5 14.5t-14.5 34.5
t15 35t35 15t34.5 -14.5t14.5 -35.5z" />
    <glyph glyph-name="Aring" unicode="&#xc5;" horiz-adv-x="950" 
d="M574 848q0 -33 -28.5 -56t-70.5 -23t-70.5 23t-28.5 56t28.5 56t70.5 23t70.5 -23t28.5 -56zM905 0h-75l-99 188h-510l-101 -188h-75l383 724h96zM536 848q0 19 -17 33t-44 14t-43.5 -13.5t-16.5 -33.5t16.5 -33t43.5 -13q28 0 44.5 13.5t16.5 32.5zM698 251l-217 410h-9
l-218 -410h444z" />
    <glyph glyph-name="Ccedilla" unicode="&#xc7;" horiz-adv-x="973" 
d="M894 586l-58 -23q-117 123 -317 123q-148 0 -249 -80q-117 -93 -117 -242q0 -144 101 -233t265 -89q208 0 317 120l54 -35q-111 -147 -369 -147l-13 -31h6q79 0 79 -74q0 -38 -26 -60t-72 -22q-43 0 -82 16l8 20q24 -8 42 -8q60 0 60 48q0 32 -31 32q-16 0 -26 -14l-29 5
l40 89q-186 20 -289.5 122.5t-103.5 260.5q0 174 134 284q121 99 301 99q246 0 375 -161z" />
    <glyph glyph-name="Eacute" unicode="&#xc9;" horiz-adv-x="871" 
d="M829 0h-703v724h675v-63h-610v-246h424v-63h-424v-289h638v-63zM573 918l-104 -139h-33l57 139h80z" />
    <glyph glyph-name="Ntilde" unicode="&#xd1;" horiz-adv-x="1020" 
d="M894 0h-92l-611 661v-661h-65v724h94l609 -661v661h65v-724zM656 862q-39 -66 -89 -66q-27 0 -69.5 18.5t-56.5 18.5q-33 0 -58 -40l-33 25q50 64 87 64q23 0 66 -19t63 -19q31 0 56 41z" />
    <glyph glyph-name="Odieresis" unicode="&#xd6;" horiz-adv-x="1041" 
d="M957 363q0 -175 -134 -285q-121 -99 -302 -99q-182 0 -303 99q-134 110 -134 285q0 173 135 284q122 100 302 100q179 0 301 -100q135 -111 135 -284zM888 363q0 149 -118 242q-103 81 -249 81q-147 0 -249 -81q-117 -93 -117 -242q0 -145 100.5 -233.5t265.5 -88.5
t266 89t101 233zM652 848q0 -20 -14.5 -34.5t-35.5 -14.5q-20 0 -34.5 14t-14.5 35t14.5 35.5t34.5 14.5t35 -15t15 -35zM488 848q0 -20 -14.5 -34.5t-34.5 -14.5q-21 0 -35.5 14.5t-14.5 34.5t15 35t35 15t34.5 -14.5t14.5 -35.5z" />
    <glyph glyph-name="Udieresis" unicode="&#xdc;" horiz-adv-x="1016" 
d="M890 226q0 -110 -102 -177q-104 -70 -279 -70q-174 0 -278.5 69t-104.5 178v498h65v-473q0 -209 318 -209q316 0 316 209v473h65v-498zM639 848q0 -20 -14.5 -34.5t-35.5 -14.5q-20 0 -34.5 14t-14.5 35t14.5 35.5t34.5 14.5t35 -15t15 -35zM475 848q0 -20 -14.5 -34.5
t-34.5 -14.5q-21 0 -35.5 14.5t-14.5 34.5t15 35t35 15t34.5 -14.5t14.5 -35.5z" />
    <glyph glyph-name="aacute" unicode="&#xe1;" horiz-adv-x="758" 
d="M753 0h-76l-84 157h-427l-86 -157h-75l331 615h87zM560 220l-179 333h-2l-180 -333h361zM481 807l-104 -139h-33l57 139h80z" />
    <glyph glyph-name="agrave" unicode="&#xe0;" horiz-adv-x="758" 
d="M753 0h-76l-84 157h-427l-86 -157h-75l331 615h87zM560 220l-179 333h-2l-180 -333h361zM411 668h-33l-104 139h79z" />
    <glyph glyph-name="acircumflex" unicode="&#xe2;" horiz-adv-x="758" 
d="M753 0h-76l-84 157h-427l-86 -157h-75l331 615h87zM560 220l-179 333h-2l-180 -333h361zM540 669h-66l-97 105l-98 -105h-66l128 139h76z" />
    <glyph glyph-name="adieresis" unicode="&#xe4;" horiz-adv-x="758" 
d="M753 0h-76l-84 157h-427l-86 -157h-75l331 615h87zM560 220l-179 333h-2l-180 -333h361zM510 737q0 -20 -14.5 -34.5t-35.5 -14.5q-20 0 -34.5 14t-14.5 35t14.5 35.5t34.5 14.5t35 -15t15 -35zM346 737q0 -20 -14.5 -34.5t-34.5 -14.5q-21 0 -35.5 14.5t-14.5 34.5
t15 35t35 15t34.5 -14.5t14.5 -35.5z" />
    <glyph glyph-name="atilde" unicode="&#xe3;" horiz-adv-x="758" 
d="M753 0h-76l-84 157h-427l-86 -157h-75l331 615h87zM560 220l-179 333h-2l-180 -333h361zM525 751q-39 -66 -89 -66q-27 0 -69.5 18.5t-56.5 18.5q-33 0 -58 -40l-33 25q50 64 87 64q23 0 66 -19t63 -19q31 0 56 41z" />
    <glyph glyph-name="aring" unicode="&#xe5;" horiz-adv-x="758" 
d="M480 744q0 -33 -28.5 -56t-70.5 -23t-70.5 23t-28.5 56t28.5 56t70.5 23t70.5 -23t28.5 -56zM753 0h-76l-84 157h-427l-86 -157h-75l331 615h87zM442 744q0 20 -17 33.5t-44 13.5t-43.5 -13.5t-16.5 -33.5t16.5 -33t43.5 -13t44 13.5t17 32.5zM560 220l-179 333h-2
l-180 -333h361z" />
    <glyph glyph-name="ccedilla" unicode="&#xe7;" horiz-adv-x="837" 
d="M772 493l-59 -23q-91 104 -268 104q-136 0 -221 -76t-85 -195q0 -111 85.5 -184.5t220.5 -73.5q179 0 268 102l55 -34q-104 -127 -310 -129l-15 -35h6q79 0 79 -74q0 -38 -26 -60t-72 -22q-43 0 -82 16l8 20q24 -8 42 -8q60 0 60 48q0 13 -9.5 22.5t-21.5 9.5
q-16 0 -26 -14l-29 5l41 93q-162 16 -252.5 102.5t-90.5 222.5q0 148 115 240q106 85 260 85q211 0 327 -142z" />
    <glyph glyph-name="eacute" unicode="&#xe9;" horiz-adv-x="760" 
d="M720 0h-608v615h584v-63h-519v-195h361v-63h-361v-231h543v-63zM502 807l-104 -139h-33l57 139h80z" />
    <glyph glyph-name="egrave" unicode="&#xe8;" horiz-adv-x="760" 
d="M720 0h-608v615h584v-63h-519v-195h361v-63h-361v-231h543v-63zM432 668h-33l-104 139h79z" />
    <glyph glyph-name="ecircumflex" unicode="&#xea;" horiz-adv-x="760" 
d="M720 0h-608v615h584v-63h-519v-195h361v-63h-361v-231h543v-63zM561 669h-66l-97 105l-98 -105h-66l128 139h76z" />
    <glyph glyph-name="edieresis" unicode="&#xeb;" horiz-adv-x="760" 
d="M720 0h-608v615h584v-63h-519v-195h361v-63h-361v-231h543v-63zM531 737q0 -20 -14.5 -34.5t-35.5 -14.5q-20 0 -34.5 14t-14.5 35t14.5 35.5t34.5 14.5t35 -15t15 -35zM367 737q0 -20 -14.5 -34.5t-34.5 -14.5q-21 0 -35.5 14.5t-14.5 34.5t15 35t35 15t34.5 -14.5
t14.5 -35.5z" />
    <glyph glyph-name="iacute" unicode="&#xed;" horiz-adv-x="290" 
d="M177 0h-65v615h65v-615zM247 807l-104 -139h-33l57 139h80z" />
    <glyph glyph-name="igrave" unicode="&#xec;" horiz-adv-x="290" 
d="M177 0h-65v615h65v-615zM177 668h-33l-104 139h79z" />
    <glyph glyph-name="icircumflex" unicode="&#xee;" horiz-adv-x="290" 
d="M177 0h-65v615h65v-615zM306 669h-66l-97 105l-98 -105h-66l128 139h76z" />
    <glyph glyph-name="idieresis" unicode="&#xef;" horiz-adv-x="290" 
d="M177 0h-65v615h65v-615zM276 737q0 -20 -14.5 -34.5t-35.5 -14.5q-20 0 -34.5 14t-14.5 35t14.5 35.5t34.5 14.5t35 -15t15 -35zM112 737q0 -20 -14.5 -34.5t-34.5 -14.5q-21 0 -35.5 14.5t-14.5 34.5t15 35t35 15t34.5 -14.5t14.5 -35.5z" />
    <glyph glyph-name="ntilde" unicode="&#xf1;" horiz-adv-x="887" 
d="M775 0h-82l-516 553v-553h-65v615h82l516 -553v553h65v-615zM590 751q-39 -66 -89 -66q-27 0 -69.5 18.5t-56.5 18.5q-33 0 -58 -40l-33 25q50 64 87 64q23 0 66 -19t63 -19q31 0 56 41z" />
    <glyph glyph-name="oacute" unicode="&#xf3;" horiz-adv-x="893" 
d="M823 309q0 -150 -115 -243q-104 -84 -262 -84q-156 0 -261 85q-115 93 -115 242q0 147 116 241q106 86 260 86t260 -86q117 -95 117 -241zM753 303q0 118 -85.5 194.5t-221.5 76.5t-221 -77t-85 -196q0 -112 84.5 -184t221.5 -72t222 72.5t85 185.5zM549 807l-104 -139
h-33l57 139h80z" />
    <glyph glyph-name="ograve" unicode="&#xf2;" horiz-adv-x="893" 
d="M823 309q0 -150 -115 -243q-104 -84 -262 -84q-156 0 -261 85q-115 93 -115 242q0 147 116 241q106 86 260 86t260 -86q117 -95 117 -241zM753 303q0 118 -85.5 194.5t-221.5 76.5t-221 -77t-85 -196q0 -112 84.5 -184t221.5 -72t222 72.5t85 185.5zM479 668h-33
l-104 139h79z" />
    <glyph glyph-name="ocircumflex" unicode="&#xf4;" horiz-adv-x="893" 
d="M823 309q0 -150 -115 -243q-104 -84 -262 -84q-156 0 -261 85q-115 93 -115 242q0 147 116 241q106 86 260 86t260 -86q117 -95 117 -241zM753 303q0 118 -85.5 194.5t-221.5 76.5t-221 -77t-85 -196q0 -112 84.5 -184t221.5 -72t222 72.5t85 185.5zM608 669h-66l-97 105
l-98 -105h-66l128 139h76z" />
    <glyph glyph-name="odieresis" unicode="&#xf6;" horiz-adv-x="893" 
d="M823 309q0 -150 -115 -243q-104 -84 -262 -84q-156 0 -261 85q-115 93 -115 242q0 147 116 241q106 86 260 86t260 -86q117 -95 117 -241zM753 303q0 118 -85.5 194.5t-221.5 76.5t-221 -77t-85 -196q0 -112 84.5 -184t221.5 -72t222 72.5t85 185.5zM578 737
q0 -20 -14.5 -34.5t-35.5 -14.5q-20 0 -34.5 14t-14.5 35t14.5 35.5t34.5 14.5t35 -15t15 -35zM414 737q0 -20 -14.5 -34.5t-34.5 -14.5q-21 0 -35.5 14.5t-14.5 34.5t15 35t35 15t34.5 -14.5t14.5 -35.5z" />
    <glyph glyph-name="otilde" unicode="&#xf5;" horiz-adv-x="893" 
d="M823 309q0 -150 -115 -243q-104 -84 -262 -84q-156 0 -261 85q-115 93 -115 242q0 147 116 241q106 86 260 86t260 -86q117 -95 117 -241zM753 303q0 118 -85.5 194.5t-221.5 76.5t-221 -77t-85 -196q0 -112 84.5 -184t221.5 -72t222 72.5t85 185.5zM593 751
q-39 -66 -89 -66q-27 0 -69.5 18.5t-56.5 18.5q-33 0 -58 -40l-33 25q50 64 87 64q23 0 66 -19t63 -19q31 0 56 41z" />
    <glyph glyph-name="uacute" unicode="&#xfa;" horiz-adv-x="869" 
d="M764 201q0 -94 -89 -152.5t-239 -58.5q-151 0 -241 59t-90 152v414h65v-393q0 -170 266 -170q263 0 263 170v393h65v-414zM537 807l-104 -139h-33l57 139h80z" />
    <glyph glyph-name="ugrave" unicode="&#xf9;" horiz-adv-x="869" 
d="M764 201q0 -94 -89 -152.5t-239 -58.5q-151 0 -241 59t-90 152v414h65v-393q0 -170 266 -170q263 0 263 170v393h65v-414zM467 668h-33l-104 139h79z" />
    <glyph glyph-name="ucircumflex" unicode="&#xfb;" horiz-adv-x="869" 
d="M764 201q0 -94 -89 -152.5t-239 -58.5q-151 0 -241 59t-90 152v414h65v-393q0 -170 266 -170q263 0 263 170v393h65v-414zM596 669h-66l-97 105l-98 -105h-66l128 139h76z" />
    <glyph glyph-name="udieresis" unicode="&#xfc;" horiz-adv-x="869" 
d="M764 201q0 -94 -89 -152.5t-239 -58.5q-151 0 -241 59t-90 152v414h65v-393q0 -170 266 -170q263 0 263 170v393h65v-414zM566 737q0 -20 -14.5 -34.5t-35.5 -14.5q-20 0 -34.5 14t-14.5 35t14.5 35.5t34.5 14.5t35 -15t15 -35zM402 737q0 -20 -14.5 -34.5t-34.5 -14.5
q-21 0 -35.5 14.5t-14.5 34.5t15 35t35 15t34.5 -14.5t14.5 -35.5z" />
    <glyph glyph-name="dagger" unicode="&#x2020;" horiz-adv-x="506" 
d="M442 504h-170l18 -576h-80l18 576h-169v63h166l-13 226h75l-12 -226h167v-63z" />
    <glyph glyph-name="degree" unicode="&#xb0;" horiz-adv-x="549" 
d="M456 559q0 -69 -53.5 -120.5t-127.5 -51.5t-126 50q-55 53 -55 122q0 70 54 121t127 51q74 0 126 -50q55 -53 55 -122zM396 559q0 51 -36 88t-85 37q-50 0 -86 -36.5t-36 -88.5q0 -51 36 -87t86 -36t85.5 36t35.5 87z" />
    <glyph glyph-name="cent" unicode="&#xa2;" horiz-adv-x="707" 
d="M630 503l-48 -18q-74 74 -179 80v-412q106 4 180 80l43 -28q-89 -98 -223 -101v-104h-59v104q-126 13 -196.5 82t-70.5 174q0 103 71 172t196 83v97h59v-97q136 -9 227 -112zM344 154v411q-100 -13 -156 -68.5t-56 -136.5q0 -85 55.5 -139.5t156.5 -66.5z" />
    <glyph glyph-name="sterling" unicode="&#xa3;" horiz-adv-x="702" 
d="M645 20q-56 -25 -103 -25q-39 0 -129.5 17t-142.5 17q-90 0 -173 -43l-42 71q112 106 112 211q0 32 -14 86h-111v48h95q-20 65 -20 112q0 104 74.5 165t205.5 61q142 0 231 -80l-30 -46q-88 70 -212 70q-204 0 -204 -168q0 -45 20 -114h257v-48h-245q12 -57 12 -91
q0 -124 -82 -192q62 15 111 15q61 0 151 -16t119 -16q46 0 91 22z" />
    <glyph glyph-name="section" unicode="&#xa7;" horiz-adv-x="834" 
d="M710 252q40 -46 40 -108q0 -98 -86 -152.5t-246 -54.5q-216 0 -355 97l38 55q145 -93 319 -93q121 0 189 39t68 103q0 73 -76 98q-54 19 -223 27q-162 8 -225 38q-74 34 -74 120q0 65 50 115q-50 40 -50 106q0 88 81 137.5t230 49.5q198 0 310 -82l-41 -46
q-124 68 -272 68q-236 0 -236 -119q0 -54 55 -79q35 -16 102 -22q71 -3 142 -7q160 -9 226 -44q74 -40 74 -133q0 -63 -40 -113zM651 289q26 32 26 70q0 103 -171 120q-14 1 -155 7q-95 4 -157 20q-43 -31 -43 -74q0 -85 146 -104q8 -1 169 -8q110 -5 185 -31z" />
    <glyph glyph-name="bullet" unicode="&#x2022;" horiz-adv-x="549" 
d="M456 357q0 -70 -55 -123q-51 -49 -126 -49t-126 49q-55 53 -55 123t54 121t127 51q74 0 126 -50q55 -53 55 -122z" />
    <glyph glyph-name="paragraph" unicode="&#xb6;" horiz-adv-x="907" 
d="M764 -165h-65v466h-154v-466h-65v466h-143q-111 0 -179 60.5t-68 155.5q0 88 66 147.5t168 59.5h440v-889zM699 364v297h-154v-297h154zM480 364v297h-141q-180 0 -180 -148q0 -67 47.5 -108t125.5 -41h148z" />
    <glyph glyph-name="germandbls" unicode="&#xdf;" horiz-adv-x="1559" 
d="M1406 510q-116 61 -265 61q-226 0 -226 -107q0 -58 61 -81q52 -19 188 -24q177 -6 247 -39q81 -39 81 -135q0 -95 -83 -147t-239 -52q-214 0 -346 94l37 53q134 -86 310 -86q117 0 181.5 36t64.5 96q0 64 -62 90q-53 22 -187 28q-181 7 -246 34q-82 32 -82 121
q0 85 78.5 132.5t223.5 47.5q183 0 302 -73zM649 510q-116 61 -265 61q-226 0 -226 -107q0 -58 61 -80q52 -20 188 -25q178 -7 247 -40q81 -38 81 -134q0 -95 -83 -147t-239 -52q-213 0 -346 94l37 53q136 -86 310 -86q117 0 181.5 36t64.5 96q0 64 -62 90q-53 22 -187 28
q-181 7 -246 34q-82 32 -82 121q0 85 78.5 132.5t223.5 47.5q183 0 302 -73z" />
    <glyph glyph-name="registered" unicode="&#xae;" horiz-adv-x="379" 
d="M344 571q0 -63 -46 -108.5t-112 -45.5q-63 0 -107 45.5t-44 111.5q0 61 45.5 106t108.5 45q66 0 110.5 -44.5t44.5 -109.5zM321 571q0 55 -37.5 92.5t-94.5 37.5q-55 0 -92.5 -37.5t-37.5 -92.5t38 -93.5t92 -38.5q56 0 94 38.5t38 93.5zM260 487h-40l-32 69h-24v-69h-35
v167h59q71 0 71 -49q0 -31 -36 -44zM188 579q33 0 33 24t-35 24h-22v-48h24z" />
    <glyph glyph-name="copyright" unicode="&#xa9;" horiz-adv-x="833" 
d="M775 354q0 -149 -103 -252q-107 -107 -256 -107q-146 0 -252 106t-106 253q0 148 107 255q104 104 251 104q151 0 255 -104t104 -255zM733 354q0 131 -91.5 223.5t-225.5 92.5q-130 0 -221 -91q-94 -94 -94 -225q0 -129 93 -222t222 -93q132 0 226 94q91 91 91 221z
M588 274q-34 -140 -173 -140q-86 0 -137 58.5t-51 159.5q0 103 52.5 163t140.5 60q129 0 163 -130h-63q-27 80 -98 80q-125 0 -125 -172q0 -80 33.5 -124t91.5 -44q76 0 103 89h63z" />
    <glyph glyph-name="trademark" unicode="&#x2122;" horiz-adv-x="409" 
d="M376 548h-39v125l-46 -125h-18l-47 125v-125h-40v166h58l39 -100l36 100h57v-166zM153 681h-51v-133h-41v133h-51v33h143v-33z" />
    <glyph glyph-name="acute" unicode="&#xb4;" 
d="M352 807l-104 -139h-33l57 139h80z" />
    <glyph glyph-name="dieresis" unicode="&#xa8;" 
d="M381 737q0 -20 -14.5 -34.5t-35.5 -14.5q-20 0 -34.5 14t-14.5 35t14.5 35.5t34.5 14.5t35 -15t15 -35zM217 737q0 -20 -14.5 -34.5t-34.5 -14.5q-21 0 -35.5 14.5t-14.5 34.5t15 35t35 15t34.5 -14.5t14.5 -35.5z" />
    <glyph glyph-name="AE" unicode="&#xc6;" horiz-adv-x="1294" 
d="M1252 0h-703v188h-343l-129 -188h-72l494 724h725v-63h-610v-246h424v-63h-424v-289h638v-63zM549 251v410h-21l-279 -410h300z" />
    <glyph glyph-name="Oslash" unicode="&#xd8;" horiz-adv-x="1041" 
d="M795 668q162 -125 162 -305q0 -175 -134 -285q-121 -99 -302 -99q-126 0 -243 59l-67 -82h-72l92 112q-147 121 -147 295q0 173 135 284q121 100 302 100q114 0 225 -51l61 75h72zM319 88q95 -47 202 -47q165 0 266 89t101 233q0 151 -135 254zM704 645q-94 41 -183 41
q-147 0 -249 -81q-117 -93 -117 -242q0 -148 116 -245z" />
    <glyph glyph-name="plusminus" unicode="&#xb1;" horiz-adv-x="833" 
d="M441 571v-170h268v-48h-268v-170h-48v170h-269v48h269v170h48zM709 73v-48h-585v48h585z" />
    <glyph glyph-name="yen" unicode="&#xa5;" horiz-adv-x="836" 
d="M807 724l-301 -365h119v-49h-160l-16 -19v-93h176v-49h-176v-149h-65v149h-177v49h177v93l-15 19h-162v49h121l-304 365h79l312 -368l313 368h79z" />
    <glyph glyph-name="ordfeminine" unicode="&#xaa;" 
d="M505 309h-61l-56 103h-275l-57 -103h-61l224 416h63zM361 464l-110 205l-111 -205h221z" />
    <glyph glyph-name="ordmasculine" unicode="&#xba;" horiz-adv-x="575" 
d="M534 512q0 -92 -69 -153t-178 -61q-107 0 -176.5 60t-69.5 149q0 95 68.5 157t177.5 62q108 0 177.5 -61.5t69.5 -152.5zM478 508q0 73 -53.5 120.5t-137.5 47.5t-137 -47.5t-53 -121.5q0 -69 52.5 -114t137.5 -45q86 0 138.5 45t52.5 115z" />
    <glyph glyph-name="ae" unicode="&#xe6;" horiz-adv-x="1119" 
d="M1079 0h-608v157h-283l-110 -157h-73l426 615h624v-63h-519v-195h361v-63h-361v-231h543v-63zM471 220v332h-10l-230 -332h240z" />
    <glyph glyph-name="oslash" unicode="&#xf8;" horiz-adv-x="893" 
d="M691 562q132 -106 132 -253q0 -150 -115 -243q-104 -84 -262 -84q-100 0 -198 45l-60 -72h-77l86 103q-127 102 -127 251q0 147 116 241q106 86 260 86q95 0 195 -44l52 65h75zM289 77q74 -32 157 -32q139 0 223 73t84 191q0 119 -103 203zM599 541q-76 33 -153 33
q-136 0 -221 -77t-85 -198q0 -108 97 -192z" />
    <glyph glyph-name="questiondown" unicode="&#xbf;" horiz-adv-x="684" 
d="M456 661h-120v63h120v-63zM645 113q-107 -124 -305 -124q-137 0 -213.5 55t-76.5 150q0 72 46 111q36 30 134 62q46 15 53 18q26 10 42 24q44 38 44 154v17h67l-1 -40q-2 -96 -39 -148t-120 -80q-41 -11 -104 -37q-48 -29 -48 -85q0 -65 58 -101.5t165 -36.5
q141 0 246 99z" />
    <glyph glyph-name="exclamdown" unicode="&#xa1;" horiz-adv-x="320" 
d="M220 661h-120v63h120v-63zM206 0h-91v29l15 551h61z" />
    <glyph glyph-name="logicalnot" unicode="&#xac;" horiz-adv-x="730" 
d="M503 319q79 -19 122 -59.5t43 -94.5q0 -84 -79 -129.5t-229 -45.5t-229 45.5t-79 129.5q0 110 165 154q-122 36 -122 138q0 76 70.5 121.5t193.5 45.5q124 0 194.5 -45.5t70.5 -121.5q0 -94 -121 -138zM557 457q0 50 -50.5 78t-145.5 28t-146 -28.5t-51 -77.5
q0 -53 51.5 -83.5t144.5 -30.5q94 0 145.5 30.5t51.5 83.5zM591 165q0 58 -59.5 90t-171.5 32q-114 0 -175 -32t-61 -90q0 -51 62.5 -82t173.5 -31q112 0 171.5 30t59.5 83z" />
    <glyph glyph-name="florin" unicode="&#x192;" horiz-adv-x="539" 
d="M493 721l-18 -47q-26 10 -49 10q-78 0 -91 -77l-35 -205h115v-48h-124l-67 -362q-9 -49 -46.5 -80t-88.5 -31q-27 0 -66 12l12 45q18 -9 46 -9q65 0 75 56l69 369h-94v48h102q14 81 28 161q12 68 24 93q38 81 129 81q38 0 79 -16z" />
    <glyph glyph-name="guillemotleft" unicode="&#xab;" horiz-adv-x="520" 
d="M460 484l-138 -163l136 -162h-76l-141 162l145 163h74zM278 484l-138 -163l136 -162h-76l-141 162l145 163h74z" />
    <glyph glyph-name="guillemotright" unicode="&#xbb;" horiz-adv-x="514" 
d="M450 321l-141 -162h-76l136 162l-138 163h74zM268 321l-141 -162h-76l136 162l-138 163h74z" />
    <glyph glyph-name="ellipsis" unicode="&#x2026;" horiz-adv-x="742" 
d="M590 365q-109 -128 -279 -128q-113 0 -185.5 53.5t-72.5 135.5q0 88 74.5 142.5t201.5 54.5q154 0 244.5 -87.5t90.5 -235.5q0 -135 -94 -223t-230 -88q-168 0 -253 100l48 40q84 -78 200 -78q56 0 109 22q71 30 112 92t41 140q0 32 -7 60zM569 435q-43 69 -101 98
t-146 29q-96 0 -147.5 -34.5t-51.5 -97.5q0 -58 53 -94.5t141 -36.5q168 0 252 136z" />
    <glyph glyph-name="nonbreakingspace" unicode="&#xa0;" horiz-adv-x="270" 
 />
    <glyph glyph-name="Agrave" unicode="&#xc0;" horiz-adv-x="870" 
d="M865 0h-75l-99 188h-510l-101 -188h-75l383 724h96zM658 251l-217 410h-9l-218 -410h444zM467 779h-33l-104 139h79z" />
    <glyph glyph-name="Atilde" unicode="&#xc3;" horiz-adv-x="870" 
d="M865 0h-75l-99 188h-510l-101 -188h-75l383 724h96zM658 251l-217 410h-9l-218 -410h444zM581 862q-39 -66 -89 -66q-27 0 -69.5 18.5t-56.5 18.5q-33 0 -58 -40l-33 25q50 64 87 64q23 0 66 -19t63 -19q31 0 56 41z" />
    <glyph glyph-name="Otilde" unicode="&#xd5;" horiz-adv-x="1041" 
d="M957 363q0 -175 -134 -285q-121 -99 -302 -99q-182 0 -303 99q-134 110 -134 285q0 173 135 284q122 100 302 100q179 0 301 -100q135 -111 135 -284zM888 363q0 149 -118 242q-103 81 -249 81q-147 0 -249 -81q-117 -93 -117 -242q0 -145 100.5 -233.5t265.5 -88.5
t266 89t101 233zM667 862q-39 -66 -89 -66q-27 0 -69.5 18.5t-56.5 18.5q-33 0 -58 -40l-33 25q50 64 87 64q23 0 66 -19t63 -19q31 0 56 41z" />
    <glyph glyph-name="OE" unicode="&#x152;" horiz-adv-x="1461" 
d="M1419 0h-908q-181 0 -296 90q-131 102 -131 271q0 166 131 270q117 93 293 93h883v-63h-610v-246h424v-63h-424v-289h638v-63zM716 122v456q0 83 -139 83h-69q-159 0 -256.5 -83.5t-97.5 -216.5q0 -137 95 -217.5t259 -80.5h81q127 0 127 59z" />
    <glyph glyph-name="oe" unicode="&#x153;" horiz-adv-x="1255" 
d="M1215 0h-777q-165 0 -266.5 85.5t-101.5 221.5q0 142 113 230q100 78 252 78h756v-63h-518v-195h360v-63h-360v-231h542v-63zM608 107v380q0 65 -114 65h-59q-133 0 -214 -68t-81 -177q0 -112 79 -178t216 -66h76q97 0 97 44z" />
    <glyph glyph-name="endash" unicode="&#x2013;" horiz-adv-x="721" 
d="M661 292h-601v63h601v-63z" />
    <glyph glyph-name="emdash" unicode="&#x2014;" horiz-adv-x="862" 
d="M802 292h-742v63h742v-63z" />
    <glyph glyph-name="quotedblleft" unicode="&#x201c;" horiz-adv-x="407" 
d="M352 549h-120v93q0 82 97 82h16v-30q-62 -5 -62 -51v-31h69v-63zM175 549h-120v93q0 82 97 82h16v-30q-62 -5 -62 -51v-31h69v-63z" />
    <glyph glyph-name="quotedblright" unicode="&#x201d;" horiz-adv-x="407" 
d="M347 631q0 -82 -97 -82h-16v30q62 5 62 51v31h-69v63h120v-93zM170 631q0 -82 -97 -82h-16v30q62 5 62 51v31h-69v63h120v-93z" />
    <glyph glyph-name="quoteleft" unicode="&#x2018;" horiz-adv-x="230" 
d="M175 549h-120v93q0 82 97 82h16v-30q-62 -5 -62 -51v-31h69v-63z" />
    <glyph glyph-name="quoteright" unicode="&#x2019;" horiz-adv-x="230" 
d="M175 631q0 -82 -97 -82h-16v30q62 5 62 51v31h-69v63h120v-93z" />
    <glyph glyph-name="divide" unicode="&#xf7;" horiz-adv-x="833" 
d="M417 523q22 0 37 -15.5t15 -37.5q0 -21 -15 -36.5t-37 -15.5t-37 15t-15 37t15.5 37.5t36.5 15.5zM709 322v-48h-585v48h585zM417 178q22 0 37 -15t15 -37q0 -21 -15 -36.5t-37 -15.5t-37 15t-15 37t15.5 37t36.5 15z" />
    <glyph glyph-name="ydieresis" unicode="&#xff;" horiz-adv-x="697" 
d="M692 615l-310 -368v-247h-65v247l-312 368h80l263 -305l263 305h81zM480 737q0 -20 -14.5 -34.5t-35.5 -14.5q-20 0 -34.5 14t-14.5 35t14.5 35.5t34.5 14.5t35 -15t15 -35zM316 737q0 -20 -14.5 -34.5t-34.5 -14.5q-21 0 -35.5 14.5t-14.5 34.5t15 35t35 15t34.5 -14.5
t14.5 -35.5z" />
    <glyph glyph-name="Ydieresis" unicode="&#x178;" horiz-adv-x="793" 
d="M788 724l-358 -433v-291h-65v291l-360 433h79l312 -368l313 368h79zM528 848q0 -20 -14.5 -34.5t-35.5 -14.5q-20 0 -34.5 14t-14.5 35t14.5 35.5t34.5 14.5t35 -15t15 -35zM364 848q0 -20 -14.5 -34.5t-34.5 -14.5q-21 0 -35.5 14.5t-14.5 34.5t15 35t35 15t34.5 -14.5
t14.5 -35.5z" />
    <glyph glyph-name="currency" unicode="&#xa4;" horiz-adv-x="772" 
d="M691 308q0 -165 -133 -262q-77 -56 -172 -56q-96 0 -173 56q-133 97 -133 262q0 130 87 220q93 96 219 96q127 0 218 -95q87 -91 87 -221zM625 308q0 105 -67 176q-73 78 -172 78q-98 0 -172 -78q-67 -71 -67 -176q0 -133 103 -211q60 -46 136 -46t136 46q103 78 103 211
z" />
    <glyph glyph-name="guilsinglleft" unicode="&#x2039;" horiz-adv-x="329" 
d="M268 484l-138 -163l136 -162h-76l-141 162l145 163h74z" />
    <glyph glyph-name="guilsinglright" unicode="&#x203a;" horiz-adv-x="329" 
d="M278 321l-141 -162h-76l136 162l-138 163h74z" />
    <glyph glyph-name="daggerdbl" unicode="&#x2021;" horiz-adv-x="508" 
d="M442 153h-159l7 -225h-80l7 225h-158v63h160l9 288h-169v63h166l-13 226h75l-12 -226h167v-63h-170l9 -288h161v-63z" />
    <glyph glyph-name="periodcentered" unicode="&#xb7;" horiz-adv-x="320" 
d="M215 292h-120v63h120v-63z" />
    <glyph glyph-name="periodcentered" unicode="&#x2219;" horiz-adv-x="320" 
d="M215 292h-120v63h120v-63z" />
    <glyph glyph-name="quotesinglbase" unicode="&#x201a;" horiz-adv-x="275" 
d="M194 -30q0 -82 -97 -82h-16v30q62 5 62 51v31h-69v63h120v-93z" />
    <glyph glyph-name="quotedblbase" unicode="&#x201e;" horiz-adv-x="442" 
d="M370 -30q0 -82 -97 -82h-16v30q62 5 62 51v31h-69v63h120v-93zM193 -30q0 -82 -97 -82h-16v30q62 5 62 51v31h-69v63h120v-93z" />
    <glyph glyph-name="perthousand" unicode="&#x2030;" horiz-adv-x="1446" 
d="M1367 182q0 -80 -54 -136q-57 -59 -133 -59t-133 59q-52 54 -52 136t52 137q57 60 133 60q77 0 134 -60q53 -56 53 -137zM941 182q0 -80 -54 -136q-57 -59 -133 -59t-133 59q-52 54 -52 136t52 137q57 60 133 60q75 0 133 -60q54 -56 54 -137zM846 724l-613 -734h-80
l614 734h79zM431 542q0 -81 -55 -138t-132 -57t-133 58q-52 54 -52 137q0 82 52 137q57 60 133 60t134 -60q53 -55 53 -137zM1311 182q0 61 -39 104t-92 43t-91.5 -43t-38.5 -104t38 -103.5t92 -42.5t92.5 43t38.5 103zM885 182q0 61 -39 104t-92 43t-91.5 -43t-38.5 -104
t38 -103.5t92 -42.5t92.5 43t38.5 103zM375 542q0 61 -39 104t-92 43t-91.5 -43t-38.5 -104t38 -103.5t92 -42.5t92.5 43t38.5 103z" />
    <glyph glyph-name="Acircumflex" unicode="&#xc2;" horiz-adv-x="870" 
d="M865 0h-75l-99 188h-510l-101 -188h-75l383 724h96zM658 251l-217 410h-9l-218 -410h444zM596 780h-66l-97 105l-98 -105h-66l128 139h76z" />
    <glyph glyph-name="Ecircumflex" unicode="&#xca;" horiz-adv-x="871" 
d="M829 0h-703v724h675v-63h-610v-246h424v-63h-424v-289h638v-63zM632 780h-66l-97 105l-98 -105h-66l128 139h76z" />
    <glyph glyph-name="Aacute" unicode="&#xc1;" horiz-adv-x="870" 
d="M865 0h-75l-99 188h-510l-101 -188h-75l383 724h96zM658 251l-217 410h-9l-218 -410h444zM537 918l-104 -139h-33l57 139h80z" />
    <glyph glyph-name="Edieresis" unicode="&#xcb;" horiz-adv-x="871" 
d="M829 0h-703v724h675v-63h-610v-246h424v-63h-424v-289h638v-63zM602 848q0 -20 -14.5 -34.5t-35.5 -14.5q-20 0 -34.5 14t-14.5 35t14.5 35.5t34.5 14.5t35 -15t15 -35zM438 848q0 -20 -14.5 -34.5t-34.5 -14.5q-21 0 -35.5 14.5t-14.5 34.5t15 35t35 15t34.5 -14.5
t14.5 -35.5z" />
    <glyph glyph-name="Egrave" unicode="&#xc8;" horiz-adv-x="871" 
d="M829 0h-703v724h675v-63h-610v-246h424v-63h-424v-289h638v-63zM503 779h-33l-104 139h79z" />
    <glyph glyph-name="Iacute" unicode="&#xcd;" horiz-adv-x="317" 
d="M191 0h-65v724h65v-724zM261 918l-104 -139h-33l57 139h80z" />
    <glyph glyph-name="Icircumflex" unicode="&#xce;" horiz-adv-x="317" 
d="M191 0h-65v724h65v-724zM320 780h-66l-97 105l-98 -105h-66l128 139h76z" />
    <glyph glyph-name="Idieresis" unicode="&#xcf;" horiz-adv-x="317" 
d="M191 0h-65v724h65v-724zM290 848q0 -20 -14.5 -34.5t-35.5 -14.5q-20 0 -34.5 14t-14.5 35t14.5 35.5t34.5 14.5t35 -15t15 -35zM126 848q0 -20 -14.5 -34.5t-34.5 -14.5q-21 0 -35.5 14.5t-14.5 34.5t15 35t35 15t34.5 -14.5t14.5 -35.5z" />
    <glyph glyph-name="Igrave" unicode="&#xcc;" horiz-adv-x="317" 
d="M191 0h-65v724h65v-724zM191 779h-33l-104 139h79z" />
    <glyph glyph-name="Oacute" unicode="&#xd3;" horiz-adv-x="1041" 
d="M957 363q0 -175 -134 -285q-121 -99 -302 -99q-182 0 -303 99q-134 110 -134 285q0 173 135 284q122 100 302 100q179 0 301 -100q135 -111 135 -284zM888 363q0 149 -118 242q-103 81 -249 81q-147 0 -249 -81q-117 -93 -117 -242q0 -145 100.5 -233.5t265.5 -88.5
t266 89t101 233zM623 918l-104 -139h-33l57 139h80z" />
    <glyph glyph-name="Ocircumflex" unicode="&#xd4;" horiz-adv-x="1041" 
d="M957 363q0 -175 -134 -285q-121 -99 -302 -99q-182 0 -303 99q-134 110 -134 285q0 173 135 284q122 100 302 100q179 0 301 -100q135 -111 135 -284zM888 363q0 149 -118 242q-103 81 -249 81q-147 0 -249 -81q-117 -93 -117 -242q0 -145 100.5 -233.5t265.5 -88.5
t266 89t101 233zM682 780h-66l-97 105l-98 -105h-66l128 139h76z" />
    <glyph glyph-name="Ograve" unicode="&#xd2;" horiz-adv-x="1041" 
d="M957 363q0 -175 -134 -285q-121 -99 -302 -99q-182 0 -303 99q-134 110 -134 285q0 173 135 284q122 100 302 100q179 0 301 -100q135 -111 135 -284zM888 363q0 149 -118 242q-103 81 -249 81q-147 0 -249 -81q-117 -93 -117 -242q0 -145 100.5 -233.5t265.5 -88.5
t266 89t101 233zM553 779h-33l-104 139h79z" />
    <glyph glyph-name="Uacute" unicode="&#xda;" horiz-adv-x="1016" 
d="M890 226q0 -110 -102 -177q-104 -70 -279 -70q-174 0 -278.5 69t-104.5 178v498h65v-473q0 -209 318 -209q316 0 316 209v473h65v-498zM610 918l-104 -139h-33l57 139h80z" />
    <glyph glyph-name="Ucircumflex" unicode="&#xdb;" horiz-adv-x="1016" 
d="M890 226q0 -110 -102 -177q-104 -70 -279 -70q-174 0 -278.5 69t-104.5 178v498h65v-473q0 -209 318 -209q316 0 316 209v473h65v-498zM669 780h-66l-97 105l-98 -105h-66l128 139h76z" />
    <glyph glyph-name="Ugrave" unicode="&#xd9;" horiz-adv-x="1016" 
d="M890 226q0 -110 -102 -177q-104 -70 -279 -70q-174 0 -278.5 69t-104.5 178v498h65v-473q0 -209 318 -209q316 0 316 209v473h65v-498zM540 779h-33l-104 139h79z" />
    <glyph glyph-name="circumflex" unicode="&#x2c6;" 
d="M411 669h-66l-97 105l-98 -105h-66l128 139h76z" />
    <glyph glyph-name="tilde" unicode="&#x2dc;" 
d="M396 751q-39 -66 -89 -66q-27 0 -69.5 18.5t-56.5 18.5q-33 0 -58 -40l-33 25q50 64 87 64q23 0 66 -19t63 -19q31 0 56 41z" />
    <glyph glyph-name="macron" unicode="&#xaf;" 
d="M411 707h-317v47h317v-47z" />
    <glyph glyph-name="macron" unicode="&#x2c9;" 
d="M411 707h-317v47h317v-47z" />
    <glyph glyph-name="cedilla" unicode="&#xb8;" 
d="M254 -51q79 0 79 -74q0 -38 -26 -60t-72 -22q-43 0 -82 16l8 20q24 -8 42 -8q60 0 60 48q0 13 -9.5 22.5t-21.5 9.5q-16 0 -26 -14l-29 5l52 117h44l-25 -60h6z" />
    <glyph glyph-name="Scaron" unicode="&#x160;" horiz-adv-x="931" 
d="M751 609q-131 72 -301 72q-135 0 -206.5 -36.5t-71.5 -103.5q0 -66 69 -94q61 -25 207 -31q125 -5 169 -10q80 -8 128 -29q106 -46 106 -161q0 -110 -96.5 -171.5t-276.5 -61.5q-244 0 -398 107l38 55q158 -101 346 -101q150 0 230.5 44.5t80.5 123.5q0 74 -73 106
q-65 29 -221 36q-115 5 -160 10q-75 7 -119 24q-106 40 -106 145q0 98 91 153.5t259 55.5q227 0 351 -83zM625 918l-123 -139h-76l-128 139h66l98 -105l97 105h66z" />
    <glyph glyph-name="scaron" unicode="&#x161;" horiz-adv-x="802" 
d="M649 510q-116 61 -265 61q-226 0 -226 -107q0 -58 61 -80q52 -20 188 -25q178 -7 247 -40q81 -38 81 -134q0 -95 -83 -147t-239 -52q-213 0 -346 94l37 53q136 -86 310 -86q117 0 181.5 36t64.5 96q0 64 -62 90q-53 22 -187 28q-181 7 -246 34q-82 32 -82 121
q0 85 78.5 132.5t223.5 47.5q183 0 302 -73zM560 807l-123 -139h-76l-128 139h66l98 -105l97 105h66z" />
    <glyph glyph-name="brokenbar" unicode="&#xa6;" 
d="M277 699v-370h-53v370h53zM277 199v-370h-53v370h53z" />
    <glyph glyph-name="Eth" unicode="&#xd0;" horiz-adv-x="1024" 
d="M557 724q178 0 280.5 -99.5t102.5 -270.5q0 -153 -102.5 -253.5t-256.5 -100.5h-455v332h-67v63h67v329h431zM586 63q123 0 201 86t78 208q0 136 -82.5 220t-215.5 84h-376v-266h367v-63h-367v-269h395z" />
    <glyph glyph-name="eth" unicode="&#xf0;" horiz-adv-x="889" 
d="M482 615q153 0 242 -84.5t89 -229.5q0 -131 -89 -216t-221 -85h-392v277h-57v63h57v275h371zM507 63q60 0 112 27.5t81 74.5q39 63 39 139q0 111 -68 179.5t-180 68.5h-315v-212h312v-63h-312v-214h331z" />
    <glyph glyph-name="Yacute" unicode="&#xdd;" horiz-adv-x="793" 
d="M788 724l-358 -433v-291h-65v291l-360 433h79l312 -368l313 368h79zM499 918l-104 -139h-33l57 139h80z" />
    <glyph glyph-name="yacute" unicode="&#xfd;" horiz-adv-x="697" 
d="M692 615l-310 -368v-247h-65v247l-312 368h80l263 -305l263 305h81zM451 807l-104 -139h-33l57 139h80z" />
    <glyph glyph-name="Thorn" unicode="&#xde;" horiz-adv-x="913" 
d="M672 615q100 0 159 -58.5t59 -157.5q0 -97 -63 -154t-172 -57h-464v-188h-65v724h65v-109h481zM667 251q72 0 111.5 39.5t39.5 111.5q0 150 -175 150h-452v-301h476z" />
    <glyph glyph-name="thorn" unicode="&#xfe;" horiz-adv-x="791" 
d="M581 552q88 0 139.5 -50t51.5 -135q0 -83 -55.5 -132.5t-149.5 -49.5h-390v-185h-65v615h65v-63h404zM577 248q59 0 91 31.5t32 89.5q0 120 -143 120h-380v-241h400z" />
    <glyph glyph-name="minus" unicode="&#xad;" horiz-adv-x="833" 
d="M709 322v-48h-585v48h585z" />
    <glyph glyph-name="minus" unicode="&#x2212;" horiz-adv-x="833" 
d="M709 322v-48h-585v48h585z" />
    <glyph glyph-name="multiply" unicode="&#xd7;" horiz-adv-x="833" 
d="M418 332l235 235l34 -34l-235 -235l235 -235l-34 -34l-235 235l-235 -235l-34 34l235 235l-235 235l34 34z" />
    <glyph glyph-name="onesuperior" unicode="&#xb9;" horiz-adv-x="226" 
d="M146 289h-43v398l-77 -32v30q45 17 77 38h43v-434z" />
    <glyph glyph-name="twosuperior" unicode="&#xb2;" horiz-adv-x="517" 
d="M476 289h-449q4 68 42 115q42 53 159 91q4 1 76 21q43 13 66 25q45 24 45 64t-41 64t-113 24q-98 0 -181 -60l-26 29q100 67 207 67q91 0 146.5 -34.5t55.5 -88.5q0 -83 -128 -119q-52 -13 -148 -45q-86 -36 -112 -115h401v-38z" />
    <glyph glyph-name="threesuperior" unicode="&#xb3;" horiz-adv-x="529" 
d="M359 515q118 -18 118 -106q0 -127 -237 -127q-143 0 -220 78l27 30q67 -70 193 -70q188 0 188 94q0 81 -213 81h-24v35q13 -1 39 -1q176 0 176 83q0 38 -38.5 59.5t-108.5 21.5q-96 0 -178 -51l-26 29q101 58 202 58q94 0 146.5 -30.5t52.5 -83.5q0 -73 -97 -100z" />
    <glyph glyph-name="onehalf" unicode="&#xbd;" horiz-adv-x="977" 
d="M139 318h-41v371l-73 -29v28q43 16 73 35h41v-405zM695 724l-612 -734h-80l613 734h79zM937 0h-428q4 64 41.5 109.5t149.5 82.5q50 12 136 43q43 22 43 60q0 37 -39.5 59.5t-107.5 22.5q-92 0 -173 -56l-24 27q95 63 197 63q87 0 140 -32.5t53 -82.5q0 -77 -123 -111
q-49 -12 -141 -42q-82 -35 -106 -108h382v-35z" />
    <glyph glyph-name="onequarter" unicode="&#xbc;" horiz-adv-x="975" 
d="M139 318h-41v371l-73 -29v28q43 16 73 35h41v-405zM695 724l-612 -734h-80l613 734h79zM956 85h-105v-85h-41v85h-308v36l308 284h41v-285h105v-35zM810 120v243l-268 -243h268z" />
    <glyph glyph-name="threequarters" unicode="&#xbe;" horiz-adv-x="1265" 
d="M343 529q112 -18 112 -99q0 -119 -226 -119q-136 0 -209 73l25 29q63 -66 184 -66q179 0 179 87q0 77 -203 77h-23v32q13 -1 37 -1q168 0 168 78q0 75 -140 75q-91 0 -170 -48l-24 27q95 55 192 55q90 0 140 -28.5t50 -78.5q0 -69 -92 -93zM985 724l-612 -734h-80
l613 734h79zM1246 85h-105v-85h-41v85h-308v36l308 284h41v-285h105v-35zM1100 120v243l-268 -243h268z" />
    <glyph glyph-name="Lslash" unicode="&#x141;" horiz-adv-x="755" 
d="M750 0h-624v247l-49 -33v73l49 33v404h65v-361l243 163v-73l-243 -163v-227h559v-63z" />
    <glyph glyph-name="lslash" unicode="&#x142;" horiz-adv-x="658" 
d="M653 0h-541v187l-52 -35v73l52 35v355h65v-311l176 119v-73l-176 -119v-168h476v-63z" />
    <glyph glyph-name="Zcaron" unicode="&#x17d;" horiz-adv-x="793" 
d="M758 0h-731v63l606 598h-598v63h696v-63l-620 -598h647v-63zM549 918l-123 -139h-76l-128 139h66l98 -105l97 105h66z" />
    <glyph glyph-name="zcaron" unicode="&#x17e;" horiz-adv-x="662" 
d="M647 0h-632v63l508 489h-501v63h602v-63l-520 -489h543v-63zM490 807l-123 -139h-76l-128 139h66l98 -105l97 105h66z" />
    <glyph glyph-name="notequal" unicode="&#x2260;" horiz-adv-x="549" 
d="M222 139l-117 -117l-39 40l77 77h-95v58h148l79 78h-227v58h279l117 117l40 -40l-78 -77h95v-58h-147l-79 -78h226v-58h-279z" />
    <glyph glyph-name="infinity" unicode="&#x221e;" horiz-adv-x="713" 
d="M366 238q-65 -124 -157 -124q-64 0 -110 52t-46 132q0 83 40.5 134.5t105.5 51.5q91 0 148 -124q63 124 157 124q64 0 109.5 -52t45.5 -132q0 -83 -40 -134.5t-105 -51.5q-93 0 -148 124zM336 334q-47 86 -141 86q-51 0 -84 -35t-33 -90t30 -89t76 -34q44 0 81 42
q32 37 71 120zM376 264q46 -86 142 -86q51 0 84 35t33 90q0 56 -30 89.5t-80 33.5q-77 0 -149 -162z" />
    <glyph glyph-name="lessequal" unicode="&#x2264;" horiz-adv-x="549" 
d="M47 270v61l456 143v-64l-351 -110l351 -109v-64zM46 0v62h457v-62h-457z" />
    <glyph glyph-name="greaterequal" unicode="&#x2265;" horiz-adv-x="549" 
d="M46 127v64l351 109l-351 110v64l457 -143v-61zM46 0v62h457v-62h-457z" />
    <glyph glyph-name="mu" unicode="&#xb5;" horiz-adv-x="542" 
d="M168 520l-61 -289q-8 -38 -8 -68q0 -119 110 -119q126 0 170 204l59 272h68l-80 -376q-11 -52 -11 -65q0 -32 33 -32q8 0 18 1l-10 -54q-19 -5 -42 -5q-67 0 -67 71v7q-43 -79 -146 -79q-92 0 -131 76l-56 -272h-68l154 728h68z" />
    <glyph glyph-name="mu" unicode="&#x3bc;" horiz-adv-x="542" 
d="M168 520l-61 -289q-8 -38 -8 -68q0 -119 110 -119q126 0 170 204l59 272h68l-80 -376q-11 -52 -11 -65q0 -32 33 -32q8 0 18 1l-10 -54q-19 -5 -42 -5q-67 0 -67 71v7q-43 -79 -146 -79q-92 0 -131 76l-56 -272h-68l154 728h68z" />
    <glyph glyph-name="partialdiff" unicode="&#x2202;" horiz-adv-x="494" 
d="M358 287q12 45 12 148q0 167 -63 167q-20 0 -50.5 -35t-55.5 -35q-37 0 -37 32q0 28 29 49.5t73 21.5q77 0 123 -69q47 -73 47 -199q0 -166 -66 -275q-64 -105 -156 -105q-67 0 -108 49q-44 51 -44 139q0 84 53 144.5t125 60.5q87 0 118 -93zM256 349q-52 0 -85 -58
q-35 -61 -35 -163q0 -119 84 -119q52 0 86.5 61.5t34.5 153.5q0 125 -85 125z" />
    <glyph glyph-name="summation" unicode="&#x2211;" horiz-adv-x="713" 
d="M633 514h-34q-33 108 -92 153t-172 45h-142l325 -446l-359 -394h212q114 0 164 27q56 30 91 121h35q-10 -43 -53 -236h-572l398 436l-384 524h550z" />
    <glyph glyph-name="product" unicode="&#x220f;" horiz-adv-x="823" 
d="M118 -184v896h-88v32h767v-32h-88v-896h88v-32h-264v32h84v896h-407v-896h84v-32h-264v32h88z" />
    <glyph glyph-name="pi" unicode="&#x3c0;" horiz-adv-x="549" 
d="M404 378q-4 -132 -4 -196q0 -99 8 -126q7 -23 31 -23q32 0 45 27t13 91h25q0 -161 -106 -161q-65 0 -87 53q-16 41 -16 151q0 -6 4 184h-137q0 -224 -13 -294q-19 -94 -80 -94q-46 0 -61 48q-9 27 -9 86h24q1 -52 37 -52q45 0 62 75q14 63 16 231h-22q-77 0 -87 -52h-23
q4 70 41 98q34 25 118 25h254q66 0 66 22v1h23v-3q0 -50 -22.5 -70.5t-75.5 -20.5q-16 -1 -24 0z" />
    <glyph glyph-name="integral" unicode="&#x222b;" horiz-adv-x="274" 
d="M283 757q35 0 58 -18.5t23 -48.5q0 -48 -49 -48q-29 0 -43.5 37t-29.5 37q-38 0 -48 -109q-3 -32 -12 -309q-9 -272 -47 -362q-50 -117 -144 -117q-35 0 -58 18.5t-23 48.5q0 47 49 47q29 0 44 -36.5t30 -36.5q36 0 47 109q4 44 12 309q8 269 47 362q49 117 144 117z" />
    <glyph glyph-name="Omega" unicode="&#x3a9;" horiz-adv-x="768" 
d="M593 90q48 0 66 16.5t22 69.5h23l-10 -176h-252v170q75 15 117 81q41 63 41 157q0 106 -59 173.5t-157 67.5t-157 -67t-59 -174q0 -94 40 -157q42 -66 118 -81v-170h-252l-10 176h23q3 -52 21.5 -69t66.5 -17h123v59q-119 22 -183.5 89.5t-64.5 169.5q0 120 91.5 193.5
t242.5 73.5t242.5 -73.5t91.5 -193.5q0 -101 -64.5 -169t-183.5 -90v-59h123z" />
    <glyph glyph-name="Omega" unicode="&#x2126;" horiz-adv-x="768" 
d="M593 90q48 0 66 16.5t22 69.5h23l-10 -176h-252v170q75 15 117 81q41 63 41 157q0 106 -59 173.5t-157 67.5t-157 -67t-59 -174q0 -94 40 -157q42 -66 118 -81v-170h-252l-10 176h23q3 -52 21.5 -69t66.5 -17h123v59q-119 22 -183.5 89.5t-64.5 169.5q0 120 91.5 193.5
t242.5 73.5t242.5 -73.5t91.5 -193.5q0 -101 -64.5 -169t-183.5 -90v-59h123z" />
    <glyph glyph-name="radical" unicode="&#x221a;" horiz-adv-x="549" 
d="M594 764h-57l-290 -784h-32l-156 431l-61 -22l-12 39l138 48l125 -346l252 681h93v-47z" />
    <glyph glyph-name="approxequal" unicode="&#x2248;" horiz-adv-x="549" 
d="M385 243q-33 0 -103.5 23.5t-111.5 23.5q-60 0 -152 -65v69q86 56 157 56q36 0 84 -14l82 -26q28 -7 49 -7q54 0 141 63v-69q-81 -54 -146 -54zM385 124q-32 0 -103 23.5t-117 23.5q-55 0 -147 -65v69q89 57 158 57q36 0 84 -15q40 -12 81 -25q28 -8 49 -8q53 0 141 64
v-70q-79 -54 -146 -54z" />
    <glyph glyph-name="approxequal" unicode="&#x22f2;" horiz-adv-x="549" 
d="M385 243q-33 0 -103.5 23.5t-111.5 23.5q-60 0 -152 -65v69q86 56 157 56q36 0 84 -14l82 -26q28 -7 49 -7q54 0 141 63v-69q-81 -54 -146 -54zM385 124q-32 0 -103 23.5t-117 23.5q-55 0 -147 -65v69q89 57 158 57q36 0 84 -15q40 -12 81 -25q28 -8 49 -8q53 0 141 64
v-70q-79 -54 -146 -54z" />
    <glyph glyph-name="Delta" unicode="&#x394;" horiz-adv-x="612" 
d="M595 0h-574l276 672h22zM72 32h399l-198 491z" />
    <glyph glyph-name="Delta" unicode="&#x2206;" horiz-adv-x="612" 
d="M595 0h-574l276 672h22zM72 32h399l-198 491z" />
    <glyph glyph-name="lozenge" unicode="&#x25ca;" horiz-adv-x="494" 
d="M247 807l244 -518l-244 -522l-244 522zM247 688l-188 -399l188 -403l188 403z" />
    <glyph glyph-name="fraction" unicode="&#x2044;" horiz-adv-x="268" 
d="M480 724l-612 -734h-80l613 734h79z" />
    <glyph glyph-name="fi" unicode="&#xf001;" horiz-adv-x="1001" 
d="M888 0h-65v615h65v-615zM696 552h-519v-195h361v-63h-361v-294h-65v615h584v-63z" />
    <glyph glyph-name="fl" unicode="&#xf002;" horiz-adv-x="1369" 
d="M1364 0h-541v615h65v-552h476v-63zM696 552h-519v-195h361v-63h-361v-294h-65v615h584v-63z" />
    <glyph glyph-name="dotlessi" unicode="&#x131;" horiz-adv-x="290" 
d="M177 0h-65v615h65v-615z" />
    <glyph glyph-name="breve" unicode="&#x2d8;" 
d="M383 771q-5 -46 -42 -74t-92 -28t-91.5 28t-42.5 74h55q6 -50 79 -50t79 50h55z" />
    <glyph glyph-name="dotaccent" unicode="&#x2d9;" 
d="M299 734q0 -20 -14.5 -34.5t-35.5 -14.5t-35.5 14.5t-14.5 34.5q0 21 15 35.5t35 14.5t35 -15t15 -35z" />
    <glyph glyph-name="ring" unicode="&#x2da;" 
d="M348 748q0 -33 -28.5 -56t-70.5 -23t-70.5 23t-28.5 56t28.5 56t70.5 23t70.5 -23t28.5 -56zM310 748q0 20 -17 33.5t-44 13.5t-43.5 -13.5t-16.5 -33.5t16.5 -33t43.5 -13q28 0 44.5 13.5t16.5 32.5z" />
    <glyph glyph-name="hungarumlaut" unicode="&#x2dd;" 
d="M417 808l-90 -139h-33l44 139h79zM284 808l-90 -139h-33l44 139h79z" />
    <glyph glyph-name="ogonek" unicode="&#x2db;" 
d="M303 -193q-42 -14 -81 -14q-113 0 -113 91q0 75 120 128h46q-94 -51 -94 -121q0 -33 18.5 -52.5t49.5 -19.5q18 0 47 10z" />
    <glyph glyph-name="caron" unicode="&#x2c7;" 
d="M409 807l-123 -139h-76l-128 139h66l98 -105l97 105h66z" />
    <glyph glyph-name="glyph246" horiz-adv-x="270" 
 />
    </font>
</defs>
</svg>
